<svg width="448" height="387" fill="none" xmlns="http://www.w3.org/2000/svg"><path d="M25.285 155.116 228.411 43.572V0L25.285 109.801v45.315Z" fill="#fff"/><path d="m228.358.002 200.083 107.187v40.958L228.358 43.574V.002ZM66.25 36.6l40.086 11.329V67.1L66.25 88.015V36.6ZM208.846 111.672a1 1 0 0 1 1-1h13.686a1 1 0 0 1 1 1v18.043a1 1 0 0 1-1 1h-13.686a1 1 0 0 1-1-1v-18.043ZM233.236 111.672a1 1 0 0 1 1-1h13.686a1 1 0 0 1 1 1v18.043a1 1 0 0 1-1 1h-13.686a1 1 0 0 1-1-1v-18.043ZM233.236 84.66a1 1 0 0 1 1-1h13.686a1 1 0 0 1 1 1v18.043a1 1 0 0 1-1 1h-13.686a1 1 0 0 1-1-1V84.66ZM208.846 84.66a1 1 0 0 1 1-1h13.686a1 1 0 0 1 1 1v18.043a1 1 0 0 1-1 1h-13.686a1 1 0 0 1-1-1V84.66Z" fill="#fff"/><path d="M245.445 171.394a1 1 0 0 1 .506-.882l36.362-20.66a1 1 0 0 1 1.494.854l2.564 166.652a1 1 0 0 0 1.447.879l9.035-4.517 7.32-4.067a.998.998 0 0 0 .514-.888l-1.712-123.262a1 1 0 0 1 1.44-.912l38.935 19.053a1 1 0 0 1 .561.898v79.635a1 1 0 0 0 1.465.885l14.547-7.656a1 1 0 0 0 .534-.902l-2.574-149.301a1 1 0 0 1 1.478-.895l38.067 20.688a1 1 0 0 1 .522.862l2.594 150.452a1 1 0 0 1-.508.888l-150.512 85.147a1 1 0 0 1-1.492-.858l-2.587-212.093Z" fill="#B78500"/><path d="m206.97 260.52 22.518 23.384v101.793L74.5 302.575V150.666l56.146-31.096 97.099 52.885v74.37l-20.68 12.924-.522.327.427.444Z" stroke="#B78500"/><path d="M113.714 156.354a.5.5 0 0 1 .725-.446l77.261 39.055c.179.09.287.278.274.478l-2.473 38.734a.5.5 0 0 1-.738.407l-74.789-40.794a.5.5 0 0 1-.26-.439v-36.995ZM115.453 242.644a.5.5 0 0 1 .73-.444l75.558 39.052a.502.502 0 0 1 .271.445v38.689a.5.5 0 0 1-.734.443l-75.558-39.902a.501.501 0 0 1-.267-.442v-37.841Z" stroke="#B78500"/><path d="m207.143 260.35 22.357 22.854v102.464L74.734 303.324l40.766-58.238v36.216l.267.14 75 39.5.733.386v-40.637l-.276-.138-74.724-37.362v-1.277l-.662.946-.248.353-39.823 56.891 38.505-105.889 74.49 40.225.695.375.042-.788 2-37 .017-.318-.281-.15-77-41-.735-.392v38.245l-39 107.25V150.295l57.498-31.723 96.998 54.219-.992 73.928-20.767 12.856-.531.328.437.447Z" fill="#B78500" stroke="#B78500"/><path d="M114 195 75.5 302.5M76.5 301l38-56.5" stroke="#B78500" stroke-width="3" stroke-linecap="round"/></svg>